<svg xmlns="http://www.w3.org/2000/svg" xmlns:xlink="http://www.w3.org/1999/xlink" width="500" zoomAndPan="magnify" viewBox="0 0 375 374.999991" height="500" preserveAspectRatio="xMidYMid meet" version="1.0"><defs><g/><clipPath id="797436dea6"><path d="M 17.25 0 L 357.75 0 C 367.277344 0 375 7.722656 375 17.25 L 375 357.75 C 375 367.277344 367.277344 375 357.75 375 L 17.25 375 C 7.722656 375 0 367.277344 0 357.75 L 0 17.25 C 0 7.722656 7.722656 0 17.25 0 Z M 17.25 0 " clip-rule="nonzero"/></clipPath><clipPath id="5c825ae3ba"><path d="M 255.621094 8.046875 L 273.136719 8.046875 L 273.136719 374.757812 L 255.621094 374.757812 Z M 255.621094 8.046875 " clip-rule="nonzero"/></clipPath><clipPath id="e28cf38f97"><path d="M 264.378906 8.046875 C 266.699219 8.046875 268.925781 8.96875 270.570312 10.613281 C 272.210938 12.253906 273.136719 14.484375 273.136719 16.804688 L 273.136719 365.972656 C 273.136719 368.292969 272.210938 370.519531 270.570312 372.164062 C 268.925781 373.804688 266.699219 374.726562 264.378906 374.726562 C 262.054688 374.726562 259.828125 373.804688 258.183594 372.164062 C 256.542969 370.519531 255.621094 368.292969 255.621094 365.972656 L 255.621094 16.804688 C 255.621094 14.484375 256.542969 12.253906 258.183594 10.613281 C 259.828125 8.96875 262.054688 8.046875 264.378906 8.046875 Z M 264.378906 8.046875 " clip-rule="nonzero"/></clipPath><clipPath id="f1d98e5c79"><path d="M 273.136719 64.339844 L 287.808594 64.339844 L 287.808594 316.507812 L 273.136719 316.507812 Z M 273.136719 64.339844 " clip-rule="nonzero"/></clipPath><clipPath id="0b84529690"><path d="M 90.894531 64.339844 L 105.15625 64.339844 L 105.15625 316.507812 L 90.894531 316.507812 Z M 90.894531 64.339844 " clip-rule="nonzero"/></clipPath></defs><g clip-path="url(#797436dea6)"><rect x="-37.5" width="450" fill="#ffffff" y="-37.499999" height="449.999989" fill-opacity="1"/></g><g fill="#000000" fill-opacity="1"><g transform="translate(64.966935, 309.096117)"><g><path d="M 26.484375 0 L 26.484375 -247.171875 L 88.28125 -247.171875 L 208.328125 -93.21875 L 208.328125 -247.171875 L 218.578125 -247.171875 L 218.578125 4.59375 L 208.328125 4.59375 L 36.71875 -214.6875 L 36.71875 0 Z M 26.484375 0 "/></g></g></g><g clip-path="url(#5c825ae3ba)"><g clip-path="url(#e28cf38f97)"><path fill="#ffffff" d="M 255.621094 8.046875 L 273.136719 8.046875 L 273.136719 374.757812 L 255.621094 374.757812 Z M 255.621094 8.046875 " fill-opacity="1" fill-rule="nonzero"/></g></g><g clip-path="url(#f1d98e5c79)"><path fill="#000000" d="M 273.136719 64.339844 L 287.808594 64.339844 L 287.808594 316.515625 L 273.136719 316.515625 Z M 273.136719 64.339844 " fill-opacity="1" fill-rule="nonzero"/></g><g clip-path="url(#0b84529690)"><path fill="#000000" d="M 90.894531 64.339844 L 105.15625 64.339844 L 105.15625 316.53125 L 90.894531 316.53125 Z M 90.894531 64.339844 " fill-opacity="1" fill-rule="nonzero"/></g></svg>